<?xml version="1.0" encoding="UTF-8"?>
<svg version="1.1" xmlns="http://www.w3.org/2000/svg" width="1024" height="1024">
<path d="M0 0 C1.0415625 0.75796875 2.083125 1.5159375 3.15625 2.296875 C15.69160294 11.58398867 26.63434894 22.4937242 37.55737305 33.59375 C40.82457875 36.90009048 44.09060272 40.12958959 47.63671875 43.13671875 C54.98504511 49.45636997 61.63345354 56.58216246 68.44580078 63.46630859 C76.49378856 71.72605785 76.49378856 71.72605785 85 79.5 C92.25718634 85.6526628 98.75925401 92.70928881 105.44580078 99.46630859 C113.49378856 107.72605785 113.49378856 107.72605785 122 115.5 C129.25718634 121.6526628 135.75925401 128.70928881 142.44580078 135.46630859 C150.49378856 143.72605785 150.49378856 143.72605785 159 151.5 C166.25718634 157.6526628 172.75925401 164.70928881 179.44580078 171.46630859 C187.47691666 179.71187855 187.47691666 179.71187855 195.96875 187.46875 C203.44099771 193.80374243 210.13256724 201.08311582 217.01855469 208.0390625 C226.16869285 217.32853125 226.16869285 217.32853125 235.83984375 226.0625 C242.32681772 231.8808347 248.31851383 238.27444296 254.44580078 244.46630859 C262.48324592 252.71719298 262.48324592 252.71719298 270.98046875 260.48046875 C277.65893654 266.14112873 283.65912501 272.59550858 289.8125 278.8125 C292.42029246 281.4468929 295.0313914 284.07794378 297.64453125 286.70703125 C298.23829056 287.3090889 298.83204987 287.91114655 299.44380188 288.53144836 C301.8661854 290.96826092 304.13159406 293.08772938 307 295 C306.41704322 298.36092488 305.38672176 299.97956573 302.96826172 302.35644531 C302.33024628 302.99100647 301.69223083 303.62556763 301.03488159 304.27935791 C300.34016754 304.95545105 299.64545349 305.63154419 298.9296875 306.328125 C298.21523468 307.0359613 297.50078186 307.74379761 296.76467896 308.4730835 C294.47509693 310.73925249 292.17564114 312.99506377 289.875 315.25 C287.59746529 317.49228025 285.32213874 319.7367353 283.04959106 321.98406982 C281.63593261 323.38098491 280.21918979 324.77478833 278.79879761 326.16485596 C274.82988316 330.07481258 271.07518547 334.09962851 267.44998169 338.33099365 C266.34899243 339.59829108 265.18705942 340.81294058 264 342 C259.97513056 341.7864136 257.99378425 339.32528573 255.296875 336.5546875 C254.39839844 335.64203125 253.49992188 334.729375 252.57421875 333.7890625 C251.63235947 332.8181476 250.69095564 331.84679068 249.75 330.875 C242.69535462 323.55471041 242.69535462 323.55471041 235.203125 316.6953125 C228.09720625 310.62589889 221.69375731 303.74514881 215.12695312 297.10644531 C207.30229218 289.08221076 207.30229218 289.08221076 199.03125 281.53125 C191.76639388 275.36385087 185.25163928 268.30171929 178.55419922 261.53369141 C170.50621144 253.27394215 170.50621144 253.27394215 162 245.5 C154.74281366 239.3473372 148.24074599 232.29071119 141.55419922 225.53369141 C133.50621144 217.27394215 133.50621144 217.27394215 125 209.5 C117.74281366 203.3473372 111.24074599 196.29071119 104.55419922 189.53369141 C96.50621144 181.27394215 96.50621144 181.27394215 88 173.5 C80.74281366 167.3473372 74.24074599 160.29071119 67.55419922 153.53369141 C59.50621144 145.27394215 59.50621144 145.27394215 51 137.5 C43.74281366 131.3473372 37.24074599 124.29071119 30.55419922 117.53369141 C22.50621144 109.27394215 22.50621144 109.27394215 14 101.5 C6.74281366 95.3473372 0.24074599 88.29071119 -6.44580078 81.53369141 C-15.65887495 72.14954674 -15.65887495 72.14954674 -25.41796875 63.3449707 C-27.17347732 61.85251751 -28.83234863 60.27704123 -30.5 58.6875 C-44.72486637 46.32409075 -62.78172601 38.26521944 -81 34 C-81.95132813 33.77441406 -82.90265625 33.54882812 -83.8828125 33.31640625 C-115.25521655 27.2510748 -147.89779313 34.69853831 -174.30859375 52.19140625 C-201.73619781 72.12902741 -219.19982009 100.16597044 -224.6171875 133.8359375 C-227.42430102 159.61295039 -223.28818457 185.45933831 -210.75 208.25 C-210.42813721 208.8387793 -210.10627441 209.42755859 -209.7746582 210.03417969 C-201.79638801 223.79252969 -190.67542891 234.74316504 -179.44970703 245.83154297 C-176.86612009 248.38377213 -174.29354188 250.94670161 -171.72265625 253.51171875 C-170.06312374 255.16208578 -168.40298836 256.81184685 -166.7421875 258.4609375 C-165.98364471 259.21523041 -165.22510193 259.96952332 -164.443573 260.74667358 C-160.3789083 264.75768936 -156.22068405 268.59059923 -151.89846802 272.32144165 C-148.85420351 275.01307278 -146.00765176 277.88818651 -143.15625 280.78125 C-142.54285767 281.39842896 -141.92946533 282.01560791 -141.29748535 282.65148926 C-138.71250482 285.25258789 -136.13362178 287.85970014 -133.55419922 290.46630859 C-125.52308334 298.71187855 -125.52308334 298.71187855 -117.03125 306.46875 C-109.55900229 312.80374243 -102.86743276 320.08311582 -95.98144531 327.0390625 C-86.83130715 336.32853125 -86.83130715 336.32853125 -77.16015625 345.0625 C-70.67318228 350.8808347 -64.68148617 357.27444296 -58.55419922 363.46630859 C-50.50621144 371.72605785 -50.50621144 371.72605785 -42 379.5 C-34.74281366 385.6526628 -28.24074599 392.70928881 -21.55419922 399.46630859 C-13.50621144 407.72605785 -13.50621144 407.72605785 -5 415.5 C2.25718634 421.6526628 8.75925401 428.70928881 15.44580078 435.46630859 C23.49378856 443.72605785 23.49378856 443.72605785 32 451.5 C39.25718634 457.6526628 45.75925401 464.70928881 52.44580078 471.46630859 C60.49378856 479.72605785 60.49378856 479.72605785 69 487.5 C76.25718634 493.6526628 82.75925401 500.70928881 89.44580078 507.46630859 C97.49378856 515.72605785 97.49378856 515.72605785 106 523.5 C113.25718634 529.6526628 119.75925401 536.70928881 126.44580078 543.46630859 C134.47691666 551.71187855 134.47691666 551.71187855 142.96875 559.46875 C150.44099771 565.80374243 157.13256724 573.08311582 164.01855469 580.0390625 C173.16869285 589.32853125 173.16869285 589.32853125 182.83984375 598.0625 C189.32681772 603.8808347 195.31851383 610.27444296 201.44580078 616.46630859 C210.46708288 625.6128981 210.46708288 625.6128981 220.00048828 634.21435547 C222.63263097 636.56496494 225.10199215 639.06612556 227.57421875 641.58203125 C228.07015533 642.0858432 228.56609192 642.58965515 229.07705688 643.10873413 C231.12492584 645.19280642 233.17011629 647.27929925 235.20483398 649.3762207 C257.29261003 672.09884644 286.32495048 689.34833398 318.7734375 690.203125 C353.28388968 690.61349696 383.67021648 681.28309825 409 657 C409.74894531 656.31421875 410.49789062 655.6284375 411.26953125 654.921875 C433.19731845 634.18456311 444.47805094 603.60366347 445.35131836 573.82128906 C445.69768692 538.95590141 431.39355356 509.19742485 407.53100586 484.43823242 C405.01437258 481.88135264 402.48015946 479.34348696 399.9375 476.8125 C399.09123047 475.96236328 398.24496094 475.11222656 397.37304688 474.23632812 C393.75777314 470.62662922 390.14666275 467.06836333 386.25390625 463.7578125 C379.82453644 458.2331913 373.96916129 452.07316819 368 446.0625 C366.7359115 444.79338627 365.47159044 443.52450411 364.20703125 442.25585938 C361.13533276 439.1732368 358.06679992 436.08749572 355 433 C358.68305362 424.92423749 366.12904564 418.72935328 372.33984375 412.5625 C373.10680069 411.79695801 373.87375763 411.03141602 374.66395569 410.24267578 C377.08610881 407.82606803 379.51173612 405.41298274 381.9375 403 C383.59202893 401.35049314 385.24632802 399.70075571 386.90039062 398.05078125 C390.93094202 394.03118629 394.96434272 390.01446831 399 386 C400.11367235 386.94621737 401.22615189 387.89383877 402.33813477 388.84204102 C402.95777603 389.36959488 403.5774173 389.89714874 404.21583557 390.44068909 C407.41101492 393.23318845 410.3186624 396.30213251 413.27734375 399.33984375 C415.28210439 401.29858406 417.27490401 403.09968054 419.40625 404.90625 C426.14419084 410.74569327 432.29483597 417.22903372 438.5625 423.5625 C441.12331218 426.15012363 443.68756928 428.73426312 446.25390625 431.31640625 C446.82702042 431.89781876 447.40013458 432.47923126 447.99061584 433.07826233 C451.3684657 436.47624346 454.85315111 439.66649703 458.52738953 442.74241638 C461.73866306 445.48478788 464.32580048 448.74717251 467 452 C467.83660156 453.010625 468.67320312 454.02125 469.53515625 455.0625 C501.69094266 494.55326962 514.96509677 543.18304387 510.69091797 593.64941406 C505.32173642 641.25204278 480.85486267 686.14415075 443.7890625 716.5234375 C435.00976869 723.4885377 425.83406679 729.63293304 416 735 C415.37303223 735.34369629 414.74606445 735.68739258 414.10009766 736.04150391 C371.36823122 759.14772247 320.56895276 763.87193392 273.9609375 750.60546875 C240.91143146 740.59581182 213.78539884 722.31242404 189.8359375 697.7734375 C187.78409311 695.76681282 185.75162394 693.91981224 183.5703125 692.0703125 C176.16827641 685.65916882 169.43756253 678.48960208 162.55419922 671.53369141 C154.50621144 663.27394215 154.50621144 663.27394215 146 655.5 C138.74281366 649.3473372 132.24074599 642.29071119 125.55419922 635.53369141 C117.50621144 627.27394215 117.50621144 627.27394215 109 619.5 C101.74281366 613.3473372 95.24074599 606.29071119 88.55419922 599.53369141 C80.50621144 591.27394215 80.50621144 591.27394215 72 583.5 C64.74281366 577.3473372 58.24074599 570.29071119 51.55419922 563.53369141 C43.50621144 555.27394215 43.50621144 555.27394215 35 547.5 C27.74281366 541.3473372 21.24074599 534.29071119 14.55419922 527.53369141 C6.50621144 519.27394215 6.50621144 519.27394215 -2 511.5 C-9.25718634 505.3473372 -15.75925401 498.29071119 -22.44580078 491.53369141 C-30.47691666 483.28812145 -30.47691666 483.28812145 -38.96875 475.53125 C-46.44099771 469.19625757 -53.13256724 461.91688418 -60.01855469 454.9609375 C-69.16869285 445.67146875 -69.16869285 445.67146875 -78.83984375 436.9375 C-85.32681772 431.1191653 -91.31851383 424.72555704 -97.44580078 418.53369141 C-105.49378856 410.27394215 -105.49378856 410.27394215 -114 402.5 C-121.25718634 396.3473372 -127.75925401 389.29071119 -134.44580078 382.53369141 C-142.49378856 374.27394215 -142.49378856 374.27394215 -151 366.5 C-158.25718634 360.3473372 -164.75925401 353.29071119 -171.44580078 346.53369141 C-179.49378856 338.27394215 -179.49378856 338.27394215 -188 330.5 C-195.25718634 324.3473372 -201.75925401 317.29071119 -208.44580078 310.53369141 C-217.60158346 301.2369209 -217.60158346 301.2369209 -227.27294922 292.48681641 C-237.76239518 283.45646216 -246.81362069 273.11881368 -255 262 C-255.96486328 260.71029297 -255.96486328 260.71029297 -256.94921875 259.39453125 C-285.55263849 219.99251709 -295.92926956 170.63590078 -288.97265625 122.82421875 C-285.55236158 101.38636353 -278.43944065 81.01521547 -268 62 C-267.65211426 61.36610352 -267.30422852 60.73220703 -266.94580078 60.07910156 C-258.82909227 45.50988839 -248.46176776 33.04367289 -237 21 C-236.34773438 20.29488281 -235.69546875 19.58976562 -235.0234375 18.86328125 C-175.88719414 -43.16686338 -68.33759186 -50.29339626 0 0 Z " fill="#7777DE" transform="translate(404,143)"/>
<path d="M0 0 C16.01119523 14.03070371 29.35801283 29.82923524 39.89379883 48.37402344 C40.87413086 50.05625 40.87413086 50.05625 41.87426758 51.77246094 C50.96266364 67.76399286 57.07778688 85.41436257 60.89379883 103.37402344 C61.05750977 104.1398877 61.2212207 104.90575195 61.38989258 105.69482422 C66.48617944 130.91828533 65.41568419 158.35283646 59.89379883 183.37402344 C59.72251465 184.1708252 59.55123047 184.96762695 59.37475586 185.78857422 C50.5692745 225.2313788 26.92826802 256.81989908 -1.36010742 284.59130859 C-4.49097185 287.68060593 -7.51384036 290.79505113 -10.37182617 294.13964844 C-15.60984713 300.21764565 -21.42820928 305.75204038 -27.13598633 311.38330078 C-34.05526681 318.17367126 -34.05526681 318.17367126 -40.57495117 325.34277344 C-45.89662686 331.57162553 -51.88255532 337.20442789 -57.70874023 342.95605469 C-63.07234052 348.25717281 -68.35206113 353.55508269 -73.25073242 359.29589844 C-77.95228698 364.56163954 -83.11217262 369.42683472 -88.13598633 374.38330078 C-95.05526681 381.17367126 -95.05526681 381.17367126 -101.57495117 388.34277344 C-106.89662686 394.57162553 -112.88255532 400.20442789 -118.70874023 405.95605469 C-124.07234052 411.25717281 -129.35206113 416.55508269 -134.25073242 422.29589844 C-138.95228698 427.56163954 -144.11217262 432.42683472 -149.13598633 437.38330078 C-156.05526681 444.17367126 -156.05526681 444.17367126 -162.57495117 451.34277344 C-167.89662686 457.57162553 -173.88255532 463.20442789 -179.70874023 468.95605469 C-185.07234052 474.25717281 -190.35206113 479.55508269 -195.25073242 485.29589844 C-199.95228698 490.56163954 -205.11217262 495.42683472 -210.13598633 500.38330078 C-217.04979752 507.16748494 -217.04979752 507.16748494 -223.56323242 514.33105469 C-228.46085431 520.06431768 -233.93201102 525.26748869 -239.29370117 530.56152344 C-241.4359896 532.67704521 -243.57481237 534.79598648 -245.71166992 536.91699219 C-246.1940361 537.39106003 -246.67640228 537.86512787 -247.17338562 538.3535614 C-250.04605094 541.20549025 -252.63659145 544.16762808 -255.10620117 547.37402344 C-259.27282512 546.86070883 -261.1688669 544.64344243 -264.02807617 541.70996094 C-264.49175598 541.23966461 -264.95543579 540.76936829 -265.4331665 540.28482056 C-266.91479953 538.77983784 -268.38593958 537.26511012 -269.85620117 535.74902344 C-271.78456744 533.77379607 -273.71733227 531.80295761 -275.65307617 529.83496094 C-276.35968384 529.1153997 -276.35968384 529.1153997 -277.08056641 528.38130188 C-280.33978754 525.08572713 -283.72355872 522.00732092 -287.24780273 519.00097656 C-290.52058091 516.13579083 -293.55320105 513.03210832 -296.60620117 509.93652344 C-297.2378418 509.30037109 -297.86948242 508.66421875 -298.52026367 508.00878906 C-300.05125891 506.46619538 -301.57907784 504.92045029 -303.10620117 503.37402344 C-296.94625312 496.08330024 -296.94625312 496.08330024 -293.66870117 492.93652344 C-291.35311124 490.66906355 -289.19288173 488.34524112 -287.10229492 485.87011719 C-281.75602343 479.71974608 -275.87369761 474.08431117 -270.07641602 468.36474609 C-263.15713553 461.57437561 -263.15713553 461.57437561 -256.63745117 454.40527344 C-251.31577549 448.17642134 -245.32984703 442.54361898 -239.50366211 436.79199219 C-234.14006182 431.49087406 -228.86034121 426.19296418 -223.96166992 420.45214844 C-219.26011537 415.18640733 -214.10022972 410.32121215 -209.07641602 405.36474609 C-202.15713553 398.57437561 -202.15713553 398.57437561 -195.63745117 391.40527344 C-190.31577549 385.17642134 -184.32984703 379.54361898 -178.50366211 373.79199219 C-173.14006182 368.49087406 -167.86034121 363.19296418 -162.96166992 357.45214844 C-158.26011537 352.18640733 -153.10022972 347.32121215 -148.07641602 342.36474609 C-141.15713553 335.57437561 -141.15713553 335.57437561 -134.63745117 328.40527344 C-129.31577549 322.17642134 -123.32984703 316.54361898 -117.50366211 310.79199219 C-112.14006182 305.49087406 -106.86034121 300.19296418 -101.96166992 294.45214844 C-97.26011537 289.18640733 -92.10022972 284.32121215 -87.07641602 279.36474609 C-80.15713553 272.57437561 -80.15713553 272.57437561 -73.63745117 265.40527344 C-68.31577549 259.17642134 -62.32984703 253.54361898 -56.50366211 247.79199219 C-48.28067195 239.66533295 -48.28067195 239.66533295 -40.58178711 231.04394531 C-38.94380366 229.19023803 -37.18146909 227.54211005 -35.35620117 225.87402344 C-13.90231143 204.58644292 -3.94666098 173.63027056 -3.66870117 144.06152344 C-3.79714479 115.57272895 -13.00583042 89.43092962 -31.10620117 67.37402344 C-32.15227539 66.09785156 -32.15227539 66.09785156 -33.21948242 64.79589844 C-52.21590216 42.70865355 -78.42121182 29.5572053 -107.10620117 25.37402344 C-141.63260817 23.62518011 -173.39906329 30.26076322 -200.10620117 53.37402344 C-205.44473213 58.30431007 -210.55313064 63.47059922 -215.65600586 68.64257812 C-217.99094171 71.00889489 -220.33658466 73.36416746 -222.68432617 75.71777344 C-224.19797485 77.24058713 -225.71101727 78.76400372 -227.22338867 80.28808594 C-227.91206024 80.98100739 -228.60073181 81.67392883 -229.31027222 82.3878479 C-233.21419988 86.34875675 -236.94078145 90.41494102 -240.57696533 94.62265015 C-242.33655974 96.63784399 -244.17110977 98.55340187 -246.07104492 100.43652344 C-246.72524414 101.0875 -247.37944336 101.73847656 -248.0534668 102.40917969 C-248.71024414 103.05757812 -249.36702148 103.70597656 -250.04370117 104.37402344 C-250.72754883 105.05335938 -251.41139648 105.73269531 -252.1159668 106.43261719 C-253.77707412 108.08210838 -255.4409445 109.72872479 -257.10620117 111.37402344 C-262.90456013 106.55964906 -268.22901902 101.38153912 -273.53979492 96.03808594 C-274.41773209 95.15873383 -275.29566925 94.27938171 -276.20021057 93.37338257 C-278.98374529 90.58428286 -281.76376886 87.79171326 -284.54370117 84.99902344 C-286.43836782 83.09876923 -288.33379747 81.19927691 -290.22924805 79.29980469 C-294.85755279 74.6605174 -299.48298538 70.01838177 -304.10620117 65.37402344 C-302.21928672 61.26472933 -299.45268149 58.48315557 -296.25073242 55.35839844 C-295.67087082 54.7837384 -295.09100922 54.20907837 -294.49357605 53.61700439 C-292.63998257 51.78118325 -290.77986257 49.95216928 -288.91870117 48.12402344 C-279.13979304 38.57037816 -279.13979304 38.57037816 -269.94775391 28.46240234 C-256.65115871 13.38364385 -241.85583591 -1.44894758 -225.10620117 -12.62597656 C-224.53691895 -13.00802246 -223.96763672 -13.39006836 -223.38110352 -13.78369141 C-219.70413484 -16.21528725 -215.93811782 -18.44896309 -212.10620117 -20.62597656 C-210.9847168 -21.27953125 -209.86323242 -21.93308594 -208.70776367 -22.60644531 C-142.55177178 -60.20975488 -57.00995849 -48.83844445 0 0 Z " fill="#6D79E1" transform="translate(836.106201171875,154.6259765625)"/>
<path d="M0 0 C3.23316587 1.4199249 5.37113034 3.13145732 7.84716797 5.63598633 C8.58828827 6.38048538 9.32940857 7.12498444 10.09298706 7.89204407 C10.88472321 8.69723984 11.67645935 9.50243561 12.4921875 10.33203125 C13.31574738 11.16079269 14.13930725 11.98955414 14.98782349 12.84342957 C17.62166866 15.49508931 20.24874979 18.15331951 22.875 20.8125 C25.49493611 23.46012336 28.11633422 26.10625533 30.74075317 28.74943542 C32.37301861 30.39387809 34.00260367 32.04098689 35.62911987 33.69111633 C39.59800777 37.69468393 43.59007611 41.48602023 48 45 C46.49158187 48.55480003 44.42366339 50.79559622 41.67578125 53.484375 C40.81146484 54.33773437 39.94714844 55.19109375 39.05664062 56.0703125 C38.15107422 56.95460938 37.24550781 57.83890625 36.3125 58.75 C29.23167764 65.63516848 29.23167764 65.63516848 22.57421875 72.921875 C17.40582468 78.95939875 11.62371985 84.43156142 5.97021484 90.00927734 C0.62546141 95.28882993 -4.66942778 100.55353301 -9.50683594 106.3125 C-11.15166674 108.17140624 -12.91842432 109.82631878 -14.75 111.5 C-34.71835636 131.3135629 -46.07715359 161.62477336 -46.32958984 189.43554688 C-46.3239502 190.50869141 -46.31831055 191.58183594 -46.3125 192.6875 C-46.30686035 193.82380859 -46.3012207 194.96011719 -46.29541016 196.13085938 C-45.90549353 223.35553331 -36.48487588 249.03554683 -19 270 C-18.19175781 270.98355469 -17.38351563 271.96710938 -16.55078125 272.98046875 C2.14422817 294.58172777 29.55641957 308.97287196 58 312 C92.37414461 313.62971085 123.45157505 306.95804549 150 284 C155.19409445 279.20991594 160.16208784 274.18849392 165.12255859 269.15869141 C167.38506299 266.86479739 169.65827704 264.58196092 171.93359375 262.30078125 C173.40166966 260.8235405 174.8691392 259.34569684 176.3359375 257.8671875 C177.33613419 256.860616 177.33613419 256.860616 178.35653687 255.83370972 C182.16991372 251.96292732 185.79521433 247.98065366 189.34890747 243.8710022 C191.73289224 241.16949355 194.25925814 238.63377801 196.828125 236.109375 C197.60165314 235.34152679 197.60165314 235.34152679 198.39080811 234.5581665 C200.00806944 232.95292805 201.62858913 231.35104626 203.25 229.75 C205.40397485 227.62272732 207.5545277 225.49207743 209.703125 223.359375 C210.19065247 222.88014587 210.67817993 222.40091675 211.18048096 221.90716553 C213.6934404 219.41234301 215.96420185 216.89977933 218 214 C229.98308665 219.35890634 240.00818028 232.89374655 249.125 242.0625 C250.66903625 243.61156199 252.21330526 245.160392 253.7578125 246.70898438 C257.50789568 250.46998643 261.25509688 254.23384039 265 258 C263.37915347 261.44401787 261.57463755 263.60671518 258.8125 266.25 C256.04079932 268.910056 253.43991089 271.62659698 250.94921875 274.546875 C245.45173675 280.89200599 239.36815219 286.68774738 233.39746094 292.58203125 C228.02458389 297.89231807 222.72363453 303.19724093 217.81152344 308.94384766 C201.35786448 327.61941581 182.90851795 344.04314783 161 356 C160.05954834 356.51554443 160.05954834 356.51554443 159.10009766 357.04150391 C141.95708566 366.31117114 124.04249502 372.06342903 105 376 C103.33130859 376.35384766 103.33130859 376.35384766 101.62890625 376.71484375 C56.32381608 384.95760252 6.90013432 373.56010616 -31.00390625 347.81640625 C-74.45895325 317.52448208 -101.28067398 274.63465422 -111.0546875 222.70703125 C-118.91212697 177.402093 -108.61531045 126.61470208 -82.046875 88.78125 C-81.03367188 87.40453125 -81.03367188 87.40453125 -80 86 C-79.24203125 84.9584375 -78.4840625 83.916875 -77.703125 82.84375 C-69.33258094 71.54849698 -59.67184684 61.47398056 -49.62768555 51.6640625 C-46.90914568 48.99217601 -44.33827528 46.26311559 -41.86328125 43.36328125 C-36.39981686 37.0448099 -30.33796207 31.28244884 -24.39746094 25.41796875 C-18.88078735 19.96556052 -13.42528782 14.51892808 -8.38623047 8.61328125 C-6.69875395 6.64941284 -4.91174359 4.81150392 -3.0625 3 C-2.47597656 2.4225 -1.88945312 1.845 -1.28515625 1.25 C-0.86105469 0.8375 -0.43695313 0.425 0 0 Z " fill="#8874DA" transform="translate(240,529)"/>
<path d="M0 0 C5.79835896 4.81437438 11.12281785 9.99248432 16.43359375 15.3359375 C17.31153091 16.21528961 18.18946808 17.09464172 19.0940094 18.00064087 C21.87754412 20.78974058 24.65756769 23.58231018 27.4375 26.375 C29.33216665 28.2752542 31.2275963 30.17474653 33.12304688 32.07421875 C37.75135161 36.71350604 42.37678421 41.35564167 47 46 C45.57567584 48.97816718 44.22096735 50.97931682 41.8125 53.25 C39.37448219 55.55669601 37.15753072 57.96623112 34.98046875 60.515625 C29.64230081 66.66462696 23.76293045 72.29421704 17.97021484 78.00927734 C11.05093436 84.79964782 11.05093436 84.79964782 4.53125 91.96875 C-0.79042569 98.19760209 -6.77635414 103.83040446 -12.60253906 109.58203125 C-17.96613935 114.88314938 -23.24585996 120.18105925 -28.14453125 125.921875 C-32.84608581 131.1876161 -38.00597145 136.05281128 -43.02978516 141.00927734 C-48.2763403 146.19182957 -53.42730102 151.38276577 -58.22119141 156.99414062 C-61.93305311 161.17979198 -65.96359295 165.06537872 -69.9375 169 C-70.81212891 169.87011719 -71.68675781 170.74023438 -72.58789062 171.63671875 C-74.72297449 173.76013549 -76.86037205 175.88116378 -79 178 C-83.65585187 174.11411037 -88.05488211 170.07429899 -92.30859375 165.75390625 C-92.87900894 165.17970444 -93.44942413 164.60550262 -94.03712463 164.01390076 C-96.44375215 161.59114554 -98.84431429 159.16241462 -101.24536133 156.73413086 C-110.07914912 147.76156527 -110.07914912 147.76156527 -119.43383789 139.34130859 C-121.75654002 137.35207624 -123.87203031 135.19446875 -126 133 C-121.33953527 122.88013374 -111.23538302 115.15558836 -103.39746094 107.41796875 C-98.03386065 102.11685062 -92.75414004 96.81894075 -87.85546875 91.078125 C-83.15391419 85.8123839 -77.99402855 80.94718872 -72.97021484 75.99072266 C-66.05093436 69.20035218 -66.05093436 69.20035218 -59.53125 62.03125 C-54.20957431 55.80239791 -48.22364586 50.16959554 -42.39746094 44.41796875 C-37.04112235 39.12402773 -31.76883045 33.83365371 -26.87744141 28.10009766 C-22.54314339 23.25177106 -17.81497567 18.75443869 -13.1875 14.1875 C-11.11558341 12.14223185 -9.04705557 10.09362044 -6.98046875 8.04296875 C-6.07192139 7.14602295 -5.16337402 6.24907715 -4.22729492 5.32495117 C-1.88195094 3.01255322 -1.88195094 3.01255322 0 0 Z " fill="#7079E0" transform="translate(441,312)"/>
</svg>
